<svg width="246" height="452" viewBox="0 0 246 452" fill="none" xmlns="http://www.w3.org/2000/svg">
  <rect width="246" height="452" rx="12" fill="#F3F6FB"/>
  <rect x="18" y="18" width="210" height="148" rx="10" fill="#DDE6F5"/>
  <path d="M42 143L88 89L118 122L150 100L204 143V154H42V143Z" fill="#B8C8E1"/>
  <circle cx="178" cy="64" r="16" fill="#A7BAD9"/>

  <rect x="24" y="190" width="98" height="20" rx="10" fill="#2A559C"/>
  <text x="36" y="204" fill="#FFFFFF" font-size="10" font-family="Arial, sans-serif">BLOG POST</text>

  <rect x="24" y="226" width="180" height="12" rx="6" fill="#BAC9E1"/>
  <rect x="24" y="246" width="164" height="10" rx="5" fill="#C8D4E8"/>
  <rect x="24" y="263" width="150" height="10" rx="5" fill="#C8D4E8"/>
  <rect x="24" y="280" width="136" height="10" rx="5" fill="#C8D4E8"/>

  <rect x="24" y="318" width="92" height="32" rx="16" fill="#FFFFFF" stroke="#2A559C" stroke-width="1.5"/>
  <text x="38" y="338" fill="#2A559C" font-size="10" font-family="Arial, sans-serif">READ MORE</text>
  <circle cx="138" cy="334" r="12" fill="#2A559C"/>
  <path d="M133 334H143M143 334L139 330M143 334L139 338" stroke="#FFFFFF" stroke-width="1.5" stroke-linecap="round" stroke-linejoin="round"/>

  <text x="24" y="388" fill="#7F93B2" font-size="12" font-family="Arial, sans-serif">Image unavailable</text>
  <text x="24" y="406" fill="#A3B1C8" font-size="11" font-family="Arial, sans-serif">Showing blog placeholder</text>
</svg>
